# xmcd CD database file
# Copyright (C) 1993-1998 Ti Kan
#
# Track frame offsets:
#	150
#	14655
#	31167
#	45000
#	59187
#	70305
#	81485
#	91202
#	101347
#	112607
#	121380
#	132632
#
# Disc length: 1967 seconds
#
# Revision: 2
# Processed by: cddbd v1.4b41PL1 Copyright (c) Steve Scherf et al.
# Submitted via: NotifyCDPlayer(CDDB) 1.51.3
#
DISCID=9c07ad0c
DTITLE=Johnny Rodriguez - Run For The Border
DYEAR=1900
DGENRE=
TTITLE0=Run For The Border
TTITLE1=She's Too Pretty To Cry
TTITLE2=The Bitter Inn
TTITLE3=What's New In Old Mexico
TTITLE4=Pass Me By
TTITLE5=You Always Come Back
TTITLE6=Ridin' My Thumb To Mexico
TTITLE7=That's The Way Love Goes
TTITLE8=I Just Can't Get Her Out Of My Mind
TTITLE9=(Just Get Up And) Close The Door
TTITLE10=I Wonder If I Ever Said Goodbye
TTITLE11=Desperado
EXTD=
EXTT0=
EXTT1=
EXTT2=
EXTT3=
EXTT4=
EXTT5=
EXTT6=
EXTT7=
EXTT8=
EXTT9=
EXTT10=
EXTT11=
PLAYORDER=
